<?xml version="1.0" encoding="UTF-8"?>
<svg id="Layer_1" data-name="Layer 1" xmlns="http://www.w3.org/2000/svg" viewBox="0 0 1786.81 337">
  <defs>
    <style>
      .cls-1 {
        fill: #c1272d;
        stroke-width: 0px;
      }
    </style>
  </defs>
  <path class="cls-1" d="m37.69,33.54v170.28c0,20,3.78,36.63,11.34,49.88,11.21,20,30.12,30.01,56.71,30.01,31.88,0,53.55-10.81,65.02-32.44,6.17-11.75,9.26-27.57,9.26-47.44V33.54h37.69v154.71c0,33.88-4.58,59.95-13.74,78.2-16.81,33.26-48.55,49.88-95.22,49.88s-78.35-16.62-95.03-49.88C4.58,248.19,0,222.13,0,188.25V33.54h37.69Z"/>
  <path class="cls-1" d="m239.5,108.17h32.07v28.5c9.5-11.75,19.56-20.19,30.19-25.32,10.62-5.12,22.44-7.69,35.44-7.69,28.5,0,47.76,9.94,57.76,29.82,5.5,10.88,8.25,26.44,8.25,46.7v128.83h-34.32v-126.58c0-12.25-1.81-22.13-5.44-29.63-6-12.5-16.88-18.75-32.63-18.75-8,0-14.57.81-19.69,2.44-9.25,2.75-17.38,8.25-24.38,16.5-5.63,6.63-9.28,13.47-10.97,20.53-1.69,7.06-2.53,17.16-2.53,30.29v105.2h-33.75V108.17Z"/>
  <path class="cls-1" d="m422.37,33.54h34.32v38.26h-34.32v-38.26Zm0,75.57h34.32v199.91h-34.32V109.11Z"/>
  <path class="cls-1" d="m862.08,123.12c-20.4,0-35.23,7.87-44.5,23.6-9.27,15.73-13.91,34.71-13.91,56.94s4.63,39.15,13.91,53.38c9.27,14.23,23.98,21.35,44.13,21.35,22.13,0,37.3-8.46,45.52-25.38,8.22-16.92,12.33-35.74,12.33-56.47,0-18.73-2.97-33.96-8.9-45.7-9.39-18.48-25.59-27.72-48.58-27.72Z"/>
  <path class="cls-1" d="m1762.16,0H527.73c-13.61,0-24.65,11.04-24.65,24.65v287.7c0,13.61,11.04,24.65,24.65,24.65h1234.43c13.61,0,24.65-11.04,24.65-24.65V24.65c0-13.61-11.04-24.65-24.65-24.65Zm-830.81,275.79c-15.64,21.11-39.91,31.66-72.81,31.66-27.44,0-49.22-9.33-65.36-28.01-16.05-18.56-24.1-43.46-24.2-74.68-3.9,26.59-14.29,49.07-31.17,67.44-21.63,23.63-50.79,35.44-87.5,35.44-31.64,0-58.21-9.69-79.71-29.08-28.3-25.65-42.45-65.24-42.45-118.78,0-40.66,10.62-73.99,31.88-100.02,22.98-28.27,54.68-42.41,95.08-42.41,34.47,0,61.22,9.19,80.25,27.57,19.03,18.38,29.59,39.26,31.7,62.63h-36.38c-4.05-17.75-12.12-31.82-24.22-42.19-12.1-10.38-29.07-15.56-50.92-15.56-26.64,0-48.16,9.54-64.55,28.62-16.39,19.08-24.58,48.33-24.58,87.74,0,32.29,7.4,58.46,22.2,78.55,14.8,20.08,36.87,30.12,66.22,30.12,27.02,0,47.59-10.57,61.71-31.69,7.49-11.13,13.08-25.75,16.76-43.88h35.74c.8-31.4,9.27-56.61,25.43-75.6,17.01-19.98,39.85-29.98,68.53-29.98,25.7,0,47.42,8.62,65.18,25.86,17.75,17.24,26.63,42.59,26.63,76.07s-7.82,59.09-23.46,80.2Zm197.89,24.54h-34.32v-126.58c0-12.25-1.82-22.13-5.44-29.63-6-12.5-16.88-18.75-32.63-18.75-8,0-14.57.81-19.69,2.44-9.25,2.75-17.38,8.25-24.38,16.5-5.63,6.63-9.28,13.47-10.97,20.53-1.69,7.06-2.53,17.16-2.53,30.29v105.2h-33.75V99.49h32.07v28.5c9.5-11.75,19.56-20.19,30.19-25.32,10.62-5.12,22.44-7.69,35.44-7.69,28.5,0,47.76,9.94,57.76,29.82,5.5,10.88,8.25,26.44,8.25,46.7v128.83Zm182.87,0h-34.31v-126.58c0-12.25-1.82-22.13-5.44-29.63-6-12.5-16.88-18.75-32.63-18.75-8,0-14.57.81-19.69,2.44-9.26,2.75-17.38,8.25-24.38,16.5-5.63,6.63-9.28,13.47-10.97,20.53-1.69,7.06-2.53,17.16-2.53,30.29v105.2h-33.76V99.49h32.07v28.5c9.5-11.75,19.57-20.19,30.19-25.32,10.63-5.12,22.44-7.69,35.44-7.69,28.5,0,47.75,9.94,57.76,29.82,5.5,10.88,8.25,26.44,8.25,46.7v128.83Zm436.28-173.28h-32.07v131.08c0,7.01,2.37,11.69,7.12,14.07,2.63,1.38,7,2.06,13.13,2.06,1.62,0,3.38-.04,5.25-.12,1.87-.08,4.06-.3,6.56-.63v26.82c-3.87,1.12-7.91,1.94-12.1,2.44-4.19.5-8.72.75-13.59.75-15.75,0-26.44-4.03-32.07-12.1-5.63-8.06-8.44-18.53-8.44-31.41V127.05h-21.17c5.85,10.43,9.65,23.74,11.39,39.94h-32.82c-2-12.38-6.56-22.66-13.69-30.85-7.12-8.19-18.56-12.28-34.31-12.28-21.51,0-36.88,10.49-46.13,31.47-6,13.61-9,30.41-9,50.38s4.25,37.02,12.75,50.76c8.5,13.73,21.88,20.6,40.13,20.6,14,0,25.1-4.26,33.29-12.79,8.19-8.53,13.85-20.2,16.97-35.02h32.82c-3.75,26.63-13.13,46.1-28.13,58.41-15,12.32-34.19,18.47-57.57,18.47-26.26,0-47.2-9.59-62.82-28.78-14.67-18.01-22.45-40.23-23.35-66.67h-144.51c.62,20.43,5.4,36.83,14.33,49.18,8.93,12.35,22.76,18.52,41.49,18.52,17.49,0,31.45-5.84,41.87-17.52,5.83-6.78,9.96-14.63,12.39-23.55h33.19c-.88,7.38-3.78,15.6-8.72,24.66-4.94,9.07-10.45,16.47-16.53,22.22-10.18,10.01-22.77,16.75-37.78,20.26-8.07,2-17.19,3-27.36,3-24.85,0-45.91-9.1-63.18-27.28-17.27-18.19-25.9-43.66-25.9-76.42s8.7-58.45,26.09-78.58c17.39-20.13,40.13-30.19,68.22-30.19,14.16,0,27.89,3.35,41.19,10.03,13.29,6.69,23.42,15.35,30.38,25.97,6.71,10.13,11.18,21.94,13.42,35.44,1.05,4.88,1.82,11.31,2.31,19.26,2.69-25.91,10.92-46.78,24.7-62.57,17.13-19.63,38.94-29.44,65.45-29.44,22.63,0,41.04,5.5,55.22,16.5,2.99,2.32,5.71,5,8.19,8.02v-18.71h27.19v-56.07h34.13v56.07h32.07v27.57Z"/>
  <path class="cls-1" d="m1412.01,124.43c-15.37,0-28.27,5.6-38.68,16.78-10.41,11.19-15.93,25.41-16.55,42.66h110.64c-1.37-14.63-4.53-26.32-9.49-35.07-9.17-16.25-24.48-24.38-45.93-24.38Z"/>
</svg>